<svg width="46" height="46" viewBox="0 0 46 46" fill="none" xmlns="http://www.w3.org/2000/svg">
<path d="M22.5693 0H22.4668C10.0587 0 0 10.0617 0 22.4734V22.576C0 34.9877 10.0587 45.0494 22.4668 45.0494H22.5693C34.9774 45.0494 45.0361 34.9877 45.0361 22.576V22.4734C45.0361 10.0617 34.9774 0 22.5693 0Z" fill="#383D38"/>
<path d="M29.4867 9.16406H15.5512C11.7013 9.16406 8.56934 12.297 8.56934 16.148V28.9007C8.56934 32.7517 11.7013 35.8846 15.5512 35.8846H29.4867C33.3366 35.8846 36.4686 32.7517 36.4686 28.9007V16.148C36.4686 12.297 33.3366 9.16406 29.4867 9.16406ZM11.0323 16.148C11.0323 13.6559 13.0598 11.6278 15.5512 11.6278H29.4867C31.9781 11.6278 34.0056 13.6559 34.0056 16.148V28.9007C34.0056 31.3928 31.9781 33.4209 29.4867 33.4209H15.5512C13.0598 33.4209 11.0323 31.3928 11.0323 28.9007V16.148Z" fill="white"/>
<path d="M22.5188 29.0199C26.0989 29.0199 29.0131 26.1063 29.0131 22.5236C29.0131 18.9409 26.1005 16.0273 22.5188 16.0273C18.9371 16.0273 16.0244 18.9409 16.0244 22.5236C16.0244 26.1063 18.9371 29.0199 22.5188 29.0199ZM22.5188 18.4926C24.7419 18.4926 26.5501 20.3014 26.5501 22.5252C26.5501 24.749 24.7419 26.5577 22.5188 26.5577C20.2956 26.5577 18.4874 24.749 18.4874 22.5252C18.4874 20.3014 20.2956 18.4926 22.5188 18.4926Z" fill="white"/>
<path d="M29.6141 17.0788C30.5781 17.0788 31.3639 16.2944 31.3639 15.3285C31.3639 14.3625 30.5797 13.5781 29.6141 13.5781C28.6484 13.5781 27.8643 14.3625 27.8643 15.3285C27.8643 16.2944 28.6484 17.0788 29.6141 17.0788Z" fill="white"/>
</svg>
