<svg width="46" height="46" viewBox="0 0 46 46" fill="none" xmlns="http://www.w3.org/2000/svg">
<path d="M22.5693 0H22.4668C10.0587 0 0 10.0617 0 22.4734V22.576C0 34.9877 10.0587 45.0494 22.4668 45.0494H22.5693C34.9774 45.0494 45.0361 34.9877 45.0361 22.576V22.4734C45.0361 10.0617 34.9774 0 22.5693 0Z" fill="#383D38"/>
<path d="M33.4042 16.2997V20.5532C32.661 20.4806 31.6954 20.3117 30.6272 19.9203C29.2324 19.4089 28.1942 18.7097 27.5142 18.1684V26.7654L27.4968 26.7385C27.5078 26.909 27.5142 27.0826 27.5142 27.2578C27.5142 31.5271 24.0413 35.0025 19.7717 35.0025C15.5021 35.0025 12.0293 31.5271 12.0293 27.2578C12.0293 22.9885 15.5021 19.5115 19.7717 19.5115C20.1899 19.5115 20.6001 19.5446 21.0009 19.6093V23.8013C20.6159 23.664 20.2025 23.5898 19.7717 23.5898C17.7505 23.5898 16.1048 25.2344 16.1048 27.2578C16.1048 29.2812 17.7505 30.9257 19.7717 30.9257C21.7929 30.9257 23.4386 29.2796 23.4386 27.2578C23.4386 27.182 23.437 27.1063 23.4323 27.0305V10.3242H27.6814C27.6972 10.6841 27.7114 11.0471 27.7272 11.4069C27.7556 12.1156 28.008 12.7958 28.4482 13.353C28.9642 14.008 29.7263 14.7687 30.796 15.3764C31.798 15.943 32.7384 16.1876 33.4042 16.3028V16.2997Z" fill="white"/>
</svg>
